<svg xmlns="http://www.w3.org/2000/svg" viewBox="0 0 512 512" fill="none">
  <rect width="512" height="512" rx="128" fill="white"/>
  <path d="M256 195L232 212L200 178L188 148L178 155L172 142L165 150L178 160L192 178L205 208L185 260L125 445L243 445L248 270L256 248Z" fill="#D63384"/>
  <path d="M256 195L280 212L312 178L324 148L334 155L340 142L347 150L334 160L320 178L307 208L327 260L387 445L269 445L264 270L256 248Z" fill="#D63384"/>
  <polygon points="256,92 260,116 276,104 264,120 284,120 265,128 276,144 261,132 256,155 251,132 236,144 247,128 228,120 248,120 236,104 252,116" fill="#D63384"/>
  <polygon points="256,215 248,235 256,255 264,235" fill="white"/>
</svg>
